<mxfile host="app.diagrams.net" agent="Mozilla/5.0 (Windows NT 10.0; Win64; x64) AppleWebKit/537.36 (KHTML, like Gecko) Chrome/136.0.0.0 Safari/537.36" version="27.1.6">
  <diagram name="Page-1" id="jEyUggcAicq-IJzzxVhA">
    <mxGraphModel dx="1426" dy="785" grid="1" gridSize="10" guides="1" tooltips="1" connect="1" arrows="1" fold="1" page="1" pageScale="1" pageWidth="827" pageHeight="1169" math="0" shadow="0">
      <root>
        <mxCell id="0" />
        <mxCell id="1" parent="0" />
        <mxCell id="PEg1dWcD_ZEaWfx1gy0j-1" value="Администратор" style="shape=umlActor;verticalLabelPosition=bottom;verticalAlign=top;html=1;outlineConnect=0;" parent="1" vertex="1">
          <mxGeometry x="110" y="185" width="30" height="60" as="geometry" />
        </mxCell>
        <mxCell id="PEg1dWcD_ZEaWfx1gy0j-2" value="Добавить пользователя" style="ellipse;whiteSpace=wrap;html=1;" parent="1" vertex="1">
          <mxGeometry x="10" y="70" width="90" height="50" as="geometry" />
        </mxCell>
        <mxCell id="PEg1dWcD_ZEaWfx1gy0j-3" value="&lt;div&gt;Изменить&lt;br&gt;пользователя&lt;/div&gt;" style="ellipse;whiteSpace=wrap;html=1;" parent="1" vertex="1">
          <mxGeometry x="230" y="70" width="100" height="50" as="geometry" />
        </mxCell>
        <mxCell id="PEg1dWcD_ZEaWfx1gy0j-4" value="Удалить&lt;div&gt;пользователя&lt;/div&gt;" style="ellipse;whiteSpace=wrap;html=1;" parent="1" vertex="1">
          <mxGeometry x="120" y="70" width="90" height="50" as="geometry" />
        </mxCell>
        <mxCell id="PEg1dWcD_ZEaWfx1gy0j-6" value="" style="curved=1;endArrow=none;html=1;rounded=0;startFill=0;" parent="1" source="PEg1dWcD_ZEaWfx1gy0j-1" target="PEg1dWcD_ZEaWfx1gy0j-2" edge="1">
          <mxGeometry width="50" height="50" relative="1" as="geometry">
            <mxPoint x="150" y="220" as="sourcePoint" />
            <mxPoint x="200" y="170" as="targetPoint" />
            <Array as="points" />
          </mxGeometry>
        </mxCell>
        <mxCell id="PEg1dWcD_ZEaWfx1gy0j-7" value="" style="curved=1;endArrow=none;html=1;rounded=0;startFill=0;" parent="1" source="PEg1dWcD_ZEaWfx1gy0j-1" target="PEg1dWcD_ZEaWfx1gy0j-4" edge="1">
          <mxGeometry width="50" height="50" relative="1" as="geometry">
            <mxPoint x="130" y="185" as="sourcePoint" />
            <mxPoint x="182" y="150" as="targetPoint" />
            <Array as="points">
              <mxPoint x="120" y="140" />
            </Array>
          </mxGeometry>
        </mxCell>
        <mxCell id="PEg1dWcD_ZEaWfx1gy0j-8" value="" style="curved=1;endArrow=none;html=1;rounded=0;startFill=0;" parent="1" source="PEg1dWcD_ZEaWfx1gy0j-1" target="PEg1dWcD_ZEaWfx1gy0j-3" edge="1">
          <mxGeometry width="50" height="50" relative="1" as="geometry">
            <mxPoint x="170" y="305" as="sourcePoint" />
            <mxPoint x="222" y="270" as="targetPoint" />
            <Array as="points" />
          </mxGeometry>
        </mxCell>
        <mxCell id="PEg1dWcD_ZEaWfx1gy0j-9" value="Добавить&lt;div&gt;билет&lt;/div&gt;" style="ellipse;whiteSpace=wrap;html=1;" parent="1" vertex="1">
          <mxGeometry x="300" y="155" width="70" height="40" as="geometry" />
        </mxCell>
        <mxCell id="PEg1dWcD_ZEaWfx1gy0j-10" value="Удалить&lt;div&gt;билет&lt;/div&gt;" style="ellipse;whiteSpace=wrap;html=1;" parent="1" vertex="1">
          <mxGeometry x="240" y="135" width="60" height="40" as="geometry" />
        </mxCell>
        <mxCell id="PEg1dWcD_ZEaWfx1gy0j-11" value="Изменить&lt;br&gt;&lt;div&gt;билет&lt;/div&gt;" style="ellipse;whiteSpace=wrap;html=1;" parent="1" vertex="1">
          <mxGeometry x="260" y="200" width="70" height="40" as="geometry" />
        </mxCell>
        <mxCell id="PEg1dWcD_ZEaWfx1gy0j-12" value="" style="curved=1;endArrow=none;html=1;rounded=0;startFill=0;" parent="1" source="PEg1dWcD_ZEaWfx1gy0j-1" target="PEg1dWcD_ZEaWfx1gy0j-10" edge="1">
          <mxGeometry width="50" height="50" relative="1" as="geometry">
            <mxPoint x="140" y="280" as="sourcePoint" />
            <mxPoint x="190" y="230" as="targetPoint" />
            <Array as="points" />
          </mxGeometry>
        </mxCell>
        <mxCell id="PEg1dWcD_ZEaWfx1gy0j-13" value="" style="curved=1;endArrow=none;html=1;rounded=0;startFill=0;" parent="1" source="PEg1dWcD_ZEaWfx1gy0j-1" target="PEg1dWcD_ZEaWfx1gy0j-9" edge="1">
          <mxGeometry width="50" height="50" relative="1" as="geometry">
            <mxPoint x="130" y="200" as="sourcePoint" />
            <mxPoint x="180" y="150" as="targetPoint" />
            <Array as="points" />
          </mxGeometry>
        </mxCell>
        <mxCell id="PEg1dWcD_ZEaWfx1gy0j-15" value="" style="curved=1;endArrow=none;html=1;rounded=0;startFill=0;" parent="1" source="PEg1dWcD_ZEaWfx1gy0j-1" target="PEg1dWcD_ZEaWfx1gy0j-11" edge="1">
          <mxGeometry width="50" height="50" relative="1" as="geometry">
            <mxPoint x="210" y="249" as="sourcePoint" />
            <mxPoint x="331" y="240" as="targetPoint" />
            <Array as="points" />
          </mxGeometry>
        </mxCell>
        <mxCell id="PEg1dWcD_ZEaWfx1gy0j-16" value="Добавить&lt;div&gt;жанр&lt;/div&gt;" style="ellipse;whiteSpace=wrap;html=1;" parent="1" vertex="1">
          <mxGeometry x="10" y="135" width="70" height="45" as="geometry" />
        </mxCell>
        <mxCell id="PEg1dWcD_ZEaWfx1gy0j-17" value="Удалить&lt;div&gt;жанр&lt;/div&gt;" style="ellipse;whiteSpace=wrap;html=1;" parent="1" vertex="1">
          <mxGeometry x="10" y="260" width="70" height="40" as="geometry" />
        </mxCell>
        <mxCell id="PEg1dWcD_ZEaWfx1gy0j-18" value="Изменить&lt;br&gt;&lt;div&gt;жанр&lt;/div&gt;" style="ellipse;whiteSpace=wrap;html=1;" parent="1" vertex="1">
          <mxGeometry x="10" y="195" width="70" height="45" as="geometry" />
        </mxCell>
        <mxCell id="PEg1dWcD_ZEaWfx1gy0j-19" value="" style="curved=1;endArrow=none;html=1;rounded=0;startFill=0;" parent="1" source="PEg1dWcD_ZEaWfx1gy0j-1" target="PEg1dWcD_ZEaWfx1gy0j-16" edge="1">
          <mxGeometry width="50" height="50" relative="1" as="geometry">
            <mxPoint x="80" y="290" as="sourcePoint" />
            <mxPoint x="130" y="240" as="targetPoint" />
            <Array as="points" />
          </mxGeometry>
        </mxCell>
        <mxCell id="PEg1dWcD_ZEaWfx1gy0j-20" value="" style="curved=1;endArrow=none;html=1;rounded=0;startFill=0;" parent="1" source="PEg1dWcD_ZEaWfx1gy0j-1" target="PEg1dWcD_ZEaWfx1gy0j-18" edge="1">
          <mxGeometry width="50" height="50" relative="1" as="geometry">
            <mxPoint x="90" y="240" as="sourcePoint" />
            <mxPoint x="121" y="360" as="targetPoint" />
            <Array as="points" />
          </mxGeometry>
        </mxCell>
        <mxCell id="PEg1dWcD_ZEaWfx1gy0j-21" value="" style="curved=1;endArrow=none;html=1;rounded=0;startFill=0;" parent="1" source="PEg1dWcD_ZEaWfx1gy0j-1" target="PEg1dWcD_ZEaWfx1gy0j-17" edge="1">
          <mxGeometry width="50" height="50" relative="1" as="geometry">
            <mxPoint x="250" y="250" as="sourcePoint" />
            <mxPoint x="231" y="360" as="targetPoint" />
            <Array as="points" />
          </mxGeometry>
        </mxCell>
        <mxCell id="PEg1dWcD_ZEaWfx1gy0j-22" value="Добавить&lt;div&gt;стиль&lt;/div&gt;" style="ellipse;whiteSpace=wrap;html=1;" parent="1" vertex="1">
          <mxGeometry x="10" y="340" width="60" height="50" as="geometry" />
        </mxCell>
        <mxCell id="PEg1dWcD_ZEaWfx1gy0j-24" value="Изменить&lt;br&gt;&lt;div&gt;стиль&lt;/div&gt;" style="ellipse;whiteSpace=wrap;html=1;" parent="1" vertex="1">
          <mxGeometry x="10" y="410" width="70" height="40" as="geometry" />
        </mxCell>
        <mxCell id="PEg1dWcD_ZEaWfx1gy0j-25" value="" style="curved=1;endArrow=none;html=1;rounded=0;startFill=0;" parent="1" source="PEg1dWcD_ZEaWfx1gy0j-1" target="PEg1dWcD_ZEaWfx1gy0j-22" edge="1">
          <mxGeometry width="50" height="50" relative="1" as="geometry">
            <mxPoint x="190" y="270" as="sourcePoint" />
            <mxPoint x="235" y="371" as="targetPoint" />
            <Array as="points" />
          </mxGeometry>
        </mxCell>
        <mxCell id="PEg1dWcD_ZEaWfx1gy0j-27" value="" style="curved=1;endArrow=none;html=1;rounded=0;startFill=0;" parent="1" source="PEg1dWcD_ZEaWfx1gy0j-1" target="PEg1dWcD_ZEaWfx1gy0j-24" edge="1">
          <mxGeometry width="50" height="50" relative="1" as="geometry">
            <mxPoint x="160" y="330" as="sourcePoint" />
            <mxPoint x="333" y="507" as="targetPoint" />
            <Array as="points">
              <mxPoint x="170" y="330" />
            </Array>
          </mxGeometry>
        </mxCell>
        <mxCell id="PEg1dWcD_ZEaWfx1gy0j-30" value="Добавить&lt;div&gt;автора&lt;/div&gt;" style="ellipse;whiteSpace=wrap;html=1;" parent="1" vertex="1">
          <mxGeometry x="130" y="350" width="70" height="50" as="geometry" />
        </mxCell>
        <mxCell id="PEg1dWcD_ZEaWfx1gy0j-31" value="Удалить&lt;div&gt;автора&lt;/div&gt;" style="ellipse;whiteSpace=wrap;html=1;" parent="1" vertex="1">
          <mxGeometry x="190" y="400" width="70" height="50" as="geometry" />
        </mxCell>
        <mxCell id="PEg1dWcD_ZEaWfx1gy0j-32" value="Изменить&lt;br&gt;&lt;div&gt;автора&lt;/div&gt;" style="ellipse;whiteSpace=wrap;html=1;" parent="1" vertex="1">
          <mxGeometry x="100" y="405" width="70" height="50" as="geometry" />
        </mxCell>
        <mxCell id="PEg1dWcD_ZEaWfx1gy0j-33" value="" style="curved=1;endArrow=none;html=1;rounded=0;startFill=0;" parent="1" source="PEg1dWcD_ZEaWfx1gy0j-1" target="PEg1dWcD_ZEaWfx1gy0j-23" edge="1">
          <mxGeometry width="50" height="50" relative="1" as="geometry">
            <mxPoint x="124" y="245" as="sourcePoint" />
            <mxPoint x="59" y="412" as="targetPoint" />
            <Array as="points" />
          </mxGeometry>
        </mxCell>
        <mxCell id="PEg1dWcD_ZEaWfx1gy0j-23" value="Удалить&lt;div&gt;стиль&lt;/div&gt;" style="ellipse;whiteSpace=wrap;html=1;" parent="1" vertex="1">
          <mxGeometry x="70" y="310" width="60" height="40" as="geometry" />
        </mxCell>
        <mxCell id="PEg1dWcD_ZEaWfx1gy0j-34" value="" style="curved=1;endArrow=none;html=1;rounded=0;startFill=0;" parent="1" source="PEg1dWcD_ZEaWfx1gy0j-1" target="PEg1dWcD_ZEaWfx1gy0j-32" edge="1">
          <mxGeometry width="50" height="50" relative="1" as="geometry">
            <mxPoint x="214" y="300" as="sourcePoint" />
            <mxPoint x="200" y="365" as="targetPoint" />
            <Array as="points">
              <mxPoint x="150" y="300" />
              <mxPoint x="120" y="370" />
            </Array>
          </mxGeometry>
        </mxCell>
        <mxCell id="PEg1dWcD_ZEaWfx1gy0j-35" value="" style="curved=1;endArrow=none;html=1;rounded=0;startFill=0;" parent="1" source="PEg1dWcD_ZEaWfx1gy0j-1" target="PEg1dWcD_ZEaWfx1gy0j-30" edge="1">
          <mxGeometry width="50" height="50" relative="1" as="geometry">
            <mxPoint x="174" y="280" as="sourcePoint" />
            <mxPoint x="160" y="345" as="targetPoint" />
            <Array as="points" />
          </mxGeometry>
        </mxCell>
        <mxCell id="PEg1dWcD_ZEaWfx1gy0j-36" value="" style="curved=1;endArrow=none;html=1;rounded=0;startFill=0;" parent="1" source="PEg1dWcD_ZEaWfx1gy0j-1" edge="1">
          <mxGeometry width="50" height="50" relative="1" as="geometry">
            <mxPoint x="220" y="310" as="sourcePoint" />
            <mxPoint x="217" y="401" as="targetPoint" />
            <Array as="points">
              <mxPoint x="190" y="320" />
            </Array>
          </mxGeometry>
        </mxCell>
        <mxCell id="PEg1dWcD_ZEaWfx1gy0j-37" value="Добавить&lt;div&gt;выставку&lt;/div&gt;" style="ellipse;whiteSpace=wrap;html=1;" parent="1" vertex="1">
          <mxGeometry x="430" y="170" width="70" height="50" as="geometry" />
        </mxCell>
        <mxCell id="PEg1dWcD_ZEaWfx1gy0j-38" value="Удалить&lt;div&gt;выставку&lt;/div&gt;" style="ellipse;whiteSpace=wrap;html=1;" parent="1" vertex="1">
          <mxGeometry x="400" y="240" width="70" height="50" as="geometry" />
        </mxCell>
        <mxCell id="PEg1dWcD_ZEaWfx1gy0j-39" value="Изменить&lt;br&gt;&lt;div&gt;выставку&lt;/div&gt;" style="ellipse;whiteSpace=wrap;html=1;" parent="1" vertex="1">
          <mxGeometry x="380" y="300" width="70" height="50" as="geometry" />
        </mxCell>
        <mxCell id="PEg1dWcD_ZEaWfx1gy0j-47" value="" style="curved=1;endArrow=none;html=1;rounded=0;startFill=0;" parent="1" source="PEg1dWcD_ZEaWfx1gy0j-1" target="PEg1dWcD_ZEaWfx1gy0j-39" edge="1">
          <mxGeometry width="50" height="50" relative="1" as="geometry">
            <mxPoint x="230" y="280" as="sourcePoint" />
            <mxPoint x="350" y="284" as="targetPoint" />
            <Array as="points" />
          </mxGeometry>
        </mxCell>
        <mxCell id="PEg1dWcD_ZEaWfx1gy0j-48" value="" style="curved=1;endArrow=none;html=1;rounded=0;startFill=0;" parent="1" source="PEg1dWcD_ZEaWfx1gy0j-1" target="PEg1dWcD_ZEaWfx1gy0j-37" edge="1">
          <mxGeometry width="50" height="50" relative="1" as="geometry">
            <mxPoint x="220" y="300" as="sourcePoint" />
            <mxPoint x="352" y="410" as="targetPoint" />
            <Array as="points">
              <mxPoint x="300" y="270" />
            </Array>
          </mxGeometry>
        </mxCell>
        <mxCell id="PEg1dWcD_ZEaWfx1gy0j-49" value="" style="curved=1;endArrow=none;html=1;rounded=0;startFill=0;" parent="1" source="PEg1dWcD_ZEaWfx1gy0j-1" target="PEg1dWcD_ZEaWfx1gy0j-38" edge="1">
          <mxGeometry width="50" height="50" relative="1" as="geometry">
            <mxPoint x="230" y="280" as="sourcePoint" />
            <mxPoint x="200" y="250" as="targetPoint" />
            <Array as="points">
              <mxPoint x="230" y="270" />
            </Array>
          </mxGeometry>
        </mxCell>
        <mxCell id="PEg1dWcD_ZEaWfx1gy0j-50" value="Менеджер" style="shape=umlActor;verticalLabelPosition=bottom;verticalAlign=top;html=1;outlineConnect=0;" parent="1" vertex="1">
          <mxGeometry x="550" y="200" width="30" height="60" as="geometry" />
        </mxCell>
        <mxCell id="PEg1dWcD_ZEaWfx1gy0j-52" value="" style="curved=1;endArrow=none;html=1;rounded=0;startFill=0;" parent="1" source="PEg1dWcD_ZEaWfx1gy0j-50" target="PEg1dWcD_ZEaWfx1gy0j-37" edge="1">
          <mxGeometry width="50" height="50" relative="1" as="geometry">
            <mxPoint x="340" y="260" as="sourcePoint" />
            <mxPoint x="495" y="328" as="targetPoint" />
            <Array as="points" />
          </mxGeometry>
        </mxCell>
        <mxCell id="PEg1dWcD_ZEaWfx1gy0j-53" value="" style="curved=1;endArrow=none;html=1;rounded=0;startFill=0;" parent="1" source="PEg1dWcD_ZEaWfx1gy0j-50" target="PEg1dWcD_ZEaWfx1gy0j-39" edge="1">
          <mxGeometry width="50" height="50" relative="1" as="geometry">
            <mxPoint x="570" y="320" as="sourcePoint" />
            <mxPoint x="480" y="372" as="targetPoint" />
            <Array as="points" />
          </mxGeometry>
        </mxCell>
        <mxCell id="PEg1dWcD_ZEaWfx1gy0j-54" value="" style="curved=1;endArrow=none;html=1;rounded=0;startFill=0;" parent="1" source="PEg1dWcD_ZEaWfx1gy0j-50" target="PEg1dWcD_ZEaWfx1gy0j-38" edge="1">
          <mxGeometry width="50" height="50" relative="1" as="geometry">
            <mxPoint x="643" y="320" as="sourcePoint" />
            <mxPoint x="470" y="377" as="targetPoint" />
            <Array as="points" />
          </mxGeometry>
        </mxCell>
        <mxCell id="PEg1dWcD_ZEaWfx1gy0j-59" value="Добавить&lt;div&gt;картину&lt;/div&gt;" style="ellipse;whiteSpace=wrap;html=1;" parent="1" vertex="1">
          <mxGeometry x="320" y="355" width="70" height="50" as="geometry" />
        </mxCell>
        <mxCell id="PEg1dWcD_ZEaWfx1gy0j-60" value="Удалить&lt;div&gt;картину&lt;/div&gt;" style="ellipse;whiteSpace=wrap;html=1;" parent="1" vertex="1">
          <mxGeometry x="235" y="350" width="70" height="50" as="geometry" />
        </mxCell>
        <mxCell id="PEg1dWcD_ZEaWfx1gy0j-61" value="Изменить&lt;br&gt;&lt;div&gt;картину&lt;/div&gt;" style="ellipse;whiteSpace=wrap;html=1;" parent="1" vertex="1">
          <mxGeometry x="230" y="290" width="70" height="50" as="geometry" />
        </mxCell>
        <mxCell id="PEg1dWcD_ZEaWfx1gy0j-63" value="" style="curved=1;endArrow=none;html=1;rounded=0;startFill=0;" parent="1" source="PEg1dWcD_ZEaWfx1gy0j-1" target="PEg1dWcD_ZEaWfx1gy0j-60" edge="1">
          <mxGeometry width="50" height="50" relative="1" as="geometry">
            <mxPoint x="210" y="270" as="sourcePoint" />
            <mxPoint x="330" y="274" as="targetPoint" />
            <Array as="points" />
          </mxGeometry>
        </mxCell>
        <mxCell id="PEg1dWcD_ZEaWfx1gy0j-64" value="" style="curved=1;endArrow=none;html=1;rounded=0;startFill=0;" parent="1" source="PEg1dWcD_ZEaWfx1gy0j-1" target="PEg1dWcD_ZEaWfx1gy0j-61" edge="1">
          <mxGeometry width="50" height="50" relative="1" as="geometry">
            <mxPoint x="200" y="280" as="sourcePoint" />
            <mxPoint x="311" y="402" as="targetPoint" />
            <Array as="points" />
          </mxGeometry>
        </mxCell>
        <mxCell id="PEg1dWcD_ZEaWfx1gy0j-65" value="" style="curved=1;endArrow=none;html=1;rounded=0;startFill=0;" parent="1" source="PEg1dWcD_ZEaWfx1gy0j-1" target="PEg1dWcD_ZEaWfx1gy0j-59" edge="1">
          <mxGeometry width="50" height="50" relative="1" as="geometry">
            <mxPoint x="200" y="240" as="sourcePoint" />
            <mxPoint x="300" y="311" as="targetPoint" />
            <Array as="points">
              <mxPoint x="320" y="280" />
            </Array>
          </mxGeometry>
        </mxCell>
        <mxCell id="1vSuc5DPJRq-6fgSXo6k-1" value="Пользователь" style="shape=umlActor;verticalLabelPosition=bottom;verticalAlign=top;html=1;outlineConnect=0;" vertex="1" parent="1">
          <mxGeometry x="550" y="405" width="30" height="60" as="geometry" />
        </mxCell>
        <mxCell id="1vSuc5DPJRq-6fgSXo6k-2" value="Бронирование билетов" style="ellipse;whiteSpace=wrap;html=1;" vertex="1" parent="1">
          <mxGeometry x="400" y="370" width="100" height="50" as="geometry" />
        </mxCell>
        <mxCell id="1vSuc5DPJRq-6fgSXo6k-3" value="" style="endArrow=none;html=1;rounded=0;" edge="1" parent="1" source="1vSuc5DPJRq-6fgSXo6k-2" target="1vSuc5DPJRq-6fgSXo6k-1">
          <mxGeometry width="50" height="50" relative="1" as="geometry">
            <mxPoint x="430" y="600" as="sourcePoint" />
            <mxPoint x="480" y="550" as="targetPoint" />
          </mxGeometry>
        </mxCell>
        <mxCell id="1vSuc5DPJRq-6fgSXo6k-4" value="Просмотр выставок" style="ellipse;whiteSpace=wrap;html=1;" vertex="1" parent="1">
          <mxGeometry x="500" y="320" width="70" height="50" as="geometry" />
        </mxCell>
        <mxCell id="1vSuc5DPJRq-6fgSXo6k-5" value="" style="endArrow=none;html=1;rounded=0;" edge="1" parent="1" source="1vSuc5DPJRq-6fgSXo6k-4" target="PEg1dWcD_ZEaWfx1gy0j-50">
          <mxGeometry width="50" height="50" relative="1" as="geometry">
            <mxPoint x="560" y="270" as="sourcePoint" />
            <mxPoint x="610" y="220" as="targetPoint" />
          </mxGeometry>
        </mxCell>
        <mxCell id="1vSuc5DPJRq-6fgSXo6k-6" value="" style="endArrow=none;html=1;rounded=0;" edge="1" parent="1" source="1vSuc5DPJRq-6fgSXo6k-4" target="1vSuc5DPJRq-6fgSXo6k-1">
          <mxGeometry width="50" height="50" relative="1" as="geometry">
            <mxPoint x="610" y="380" as="sourcePoint" />
            <mxPoint x="660" y="330" as="targetPoint" />
          </mxGeometry>
        </mxCell>
      </root>
    </mxGraphModel>
  </diagram>
</mxfile>
